<svg xmlns="http://www.w3.org/2000/svg" viewBox="0 0 44.977 13.494" height="51" width="169.99">
  <path d="M0 7.914c1.5.672 3.151 1.857 3.167 1.87l.053.037-.32 3.673c.817-.41 4.344-2.128 8.08-3.144l-4.815-.513-.027-.058c-.307-.646-.886-1.908-1.727-3.757C3.649 6.26 1.524 6.969 0 7.91zm40.566-1.932a358.456 358.456 0 0 1-1.728 3.757l-.026.056-4.816.513c3.736 1.013 7.263 2.733 8.08 3.143l-.32-3.672.053-.037c.016-.013 1.667-1.199 3.168-1.87-1.524-.943-3.65-1.652-4.414-1.89zM3.778 3.141c.164.338.76 1.545 1.397 2.839.775 1.566 1.32 2.656 1.622 3.246a51.362 51.362 0 0 1 4.318-1.27 49.197 49.197 0 0 1 11.832-1.463c3.794 0 7.483.444 10.962 1.323 2.381.6 3.89 1.22 4.294 1.394a.045.045 0 0 0 .021.008c.194-.352.945-1.72 1.728-3.26a62.18 62.18 0 0 0 1.363-2.815C35.809 1.058 29.745 0 23.29 0 12.891 0 4.773 2.786 3.776 3.143z" class="shp0" fill="#252525"/>
</svg>