<svg aria-hidden="true" style="position: absolute; width: 0; height: 0; overflow: hidden;" version="1.1" xmlns="http://www.w3.org/2000/svg" xmlns:xlink="http://www.w3.org/1999/xlink">
  <defs>
    <symbol id="icon-facebook" viewBox="0 0 24 28">
      <title>Facebook</title>
      <path fill="currentColor" d="M19.5 2c2.484 0 4.5 2.016 4.5 4.5v15c0 2.484-2.016 4.5-4.5 4.5h-2.938v-9.297h3.109l0.469-3.625h-3.578v-2.312c0-1.047 0.281-1.75 1.797-1.75l1.906-0.016v-3.234c-0.328-0.047-1.469-0.141-2.781-0.141-2.766 0-4.672 1.687-4.672 4.781v2.672h-3.125v3.625h3.125v9.297h-8.313c-2.484 0-4.5-2.016-4.5-4.5v-15c0-2.484 2.016-4.5 4.5-4.5h15z"></path>
    </symbol>
    <symbol id="icon-instagram" viewBox="0 0 24 28">
      <title>Instagram</title>
      <path fill="currentColor" d="M16 14c0-2.203-1.797-4-4-4s-4 1.797-4 4 1.797 4 4 4 4-1.797 4-4zM18.156 14c0 3.406-2.75 6.156-6.156 6.156s-6.156-2.75-6.156-6.156 2.75-6.156 6.156-6.156 6.156 2.75 6.156 6.156zM19.844 7.594c0 0.797-0.641 1.437-1.437 1.437s-1.437-0.641-1.437-1.437 0.641-1.437 1.437-1.437 1.437 0.641 1.437 1.437zM12 4.156c-1.75 0-5.5-0.141-7.078 0.484-0.547 0.219-0.953 0.484-1.375 0.906s-0.688 0.828-0.906 1.375c-0.625 1.578-0.484 5.328-0.484 7.078s-0.141 5.5 0.484 7.078c0.219 0.547 0.484 0.953 0.906 1.375s0.828 0.688 1.375 0.906c1.578 0.625 5.328 0.484 7.078 0.484s5.5 0.141 7.078-0.484c0.547-0.219 0.953-0.484 1.375-0.906s0.688-0.828 0.906-1.375c0.625-1.578 0.484-5.328 0.484-7.078s0.141-5.5-0.484-7.078c-0.219-0.547-0.484-0.953-0.906-1.375s-0.828-0.688-1.375-0.906c-1.578-0.625-5.328-0.484-7.078-0.484zM24 14c0 1.656 0.016 3.297-0.078 4.953-0.094 1.922-0.531 3.625-1.937 5.031s-3.109 1.844-5.031 1.937c-1.656 0.094-3.297 0.078-4.953 0.078s-3.297 0.016-4.953-0.078c-1.922-0.094-3.625-0.531-5.031-1.937s-1.844-3.109-1.937-5.031c-0.094-1.656-0.078-3.297-0.078-4.953s-0.016-3.297 0.078-4.953c0.094-1.922 0.531-3.625 1.937-5.031s3.109-1.844 5.031-1.937c1.656-0.094 3.297-0.078 4.953-0.078s3.297-0.016 4.953 0.078c1.922 0.094 3.625 0.531 5.031 1.937s1.844 3.109 1.937 5.031c0.094 1.656 0.078 3.297 0.078 4.953z"></path>
    </symbol>
    <symbol id="icon-vimeo" viewBox="0 0 24 28">
      <title>Vimeo</title>
      <path fill="currentColor" d="M20.188 9.969c0.109-2.266-0.734-3.406-2.516-3.469-2.406-0.078-4.031 1.281-4.875 4.078 0.438-0.187 0.859-0.297 1.281-0.297 0.875 0 1.266 0.5 1.156 1.5-0.047 0.594-0.438 1.469-1.156 2.609-0.734 1.156-1.281 1.719-1.641 1.719-0.469 0-0.875-0.875-1.281-2.641-0.125-0.531-0.359-1.844-0.703-3.984-0.313-1.969-1.141-2.891-2.5-2.766-0.562 0.063-1.437 0.562-2.562 1.563-0.844 0.734-1.672 1.5-2.531 2.25l0.812 1.047c0.781-0.531 1.234-0.812 1.359-0.812 0.594 0 1.156 0.938 1.672 2.797 0.469 1.719 0.938 3.422 1.406 5.141 0.703 1.859 1.547 2.797 2.562 2.797 1.625 0 3.625-1.531 5.984-4.594 2.281-2.938 3.469-5.25 3.531-6.937zM24 6.5v15c0 2.484-2.016 4.5-4.5 4.5h-15c-2.484 0-4.5-2.016-4.5-4.5v-15c0-2.484 2.016-4.5 4.5-4.5h15c2.484 0 4.5 2.016 4.5 4.5z"></path>
    </symbol>
  </defs>
</svg>