<svg version="1" xmlns="http://www.w3.org/2000/svg" width="533.333" height="533.333" viewBox="0 0 400.000000 400.000000"><path d="M186 6.6c-19.8 1.8-37.5 5.4-41.5 8.5-2.4 1.9-2.5 2.6-2.5 11.4v9.4l-4.2 1.1c-26.5 6.5-55.9 21.9-64 33.6-3.6 5-6 12.9-5.2 17 .5 2.8 0 3.7-4.6 8.3-8.2 8.2-13 20.6-13 33.5 0 5.1-.2 5.4-9.1 15.6-14.7 16.8-22.3 26.1-26.6 32.5-6.2 9.2-14.2 25.8-14.9 30.8-.9 6.5 1.9 12.2 8.7 17.3 3 2.2 10.4 7.7 16.4 12.2 6.1 4.5 11.9 9.7 13.1 11.5 1.1 1.7 2.8 4.4 3.8 5.9 1.4 2.4 2.3 2.8 6.4 2.8 3.5 0 5.8.8 9 3 4.5 3 14.1 5.6 16.9 4.6 1.3-.5 1.1-1-1-3-2.4-2.2-6.7-9.5-6.7-11.4 0-1.7 21-10.2 25.1-10.2 1 0 3 1 4.5 2.3 2.6 2.2 2.6 2.6 1.4 5.8-.7 1.9-1.4 8.3-1.5 14.6-.2 10.8-.3 11.4-2.9 14-1.5 1.5-3.4 4-4.2 5.5-.8 1.6-1.8 2.8-2.3 2.8-1 0-3.5-5.9-4.6-10.7-.3-1.8-1.1-3.5-1.6-3.9-1.5-.9-4.9 7.8-5.5 14.5-.6 5.1-1 6-2.8 6.3-3.3.5-4.6 4.5-4.6 14.9 0 12.5 1.8 18.6 6.9 23.2 5.1 4.6 6.9 5.5 15.5 7.9 3.9 1 10.5 3.9 14.6 6.3 8.8 5.2 18.5 9.7 29 13.5l7.5 2.8.3 10.5c.2 10 .4 10.7 2.8 12.6 1.4 1.1 5.6 2.7 9.4 3.5 30.9 7.1 72.8 6.8 96.5-.5 8.7-2.7 9.4-3.7 9.7-14.9l.3-9.5 9.9-3.2c17.9-5.8 43.6-19.9 49.3-27.1 2-2.6 6.1-7.2 9-10.3 6.3-6.8 7.2-9.8 4.9-15.9-1.9-5-1.9-4.5-1-11.8.5-3.7.1-7.3-1.1-11.8-2.5-9.2-4.2-9.5-6.5-1.2-.6 2-1.7 5.3-2.6 7.4l-1.5 3.7-4.5-4.4c-7.6-7.4-12.4-20.2-12.4-33.1 0-3.5.2-3.8 4.1-4.8 5.3-1.5 21.6-1.5 25.2-.1 1.5.6 2.7 1.7 2.7 2.4 0 2-5.9 10.6-8.1 11.8-1 .5-1.9 1.4-1.9 1.9 0 2.2 13.3.1 19-3 1.4-.8 5.1-1.7 8.4-2.1 5.4-.7 6.3-1.1 12-6.7 3.3-3.2 11.6-10.5 18.4-16.1 6.7-5.6 13-11.4 14-12.9 2.8-4.3 2.2-13.3-1.7-22.7-3.8-9.3-17-32-28.4-48.7l-7.9-11.8-.6-9.1-.5-9.2-6.2-8.1c-11.9-15.6-12-15.9-12-25.5-.1-11.2-1.6-14.4-12-24.7-6.8-6.8-9.7-8.9-18.5-13.2-15.9-7.7-28.2-11.9-44.2-15.2l-5.8-1.1v-9.4c0-8.8-.1-9.5-2.5-11.4-2.8-2.2-11.7-4.4-26.4-6.7-9.7-1.4-36.8-2.5-45.1-1.8zm44 4.9c12.2 1.8 22.3 4.1 25.1 5.5 1.9 1.1 1.9 4 1.7 182.8l-.3 181.6-4.9 1.9c-2.7 1-10.2 2.7-16.5 3.9-15.3 2.7-47.3 2.9-63 .4-15.9-2.5-24.1-4.6-26.1-6.6-1.7-1.7-1.8-9.9-1.9-180.9-.1-121.9.2-179.8.9-181.1 1.7-3.2 17.2-6.8 38-9 11.3-1.2 34-.5 47 1.5zM103.4 60.4C96.7 66.6 90.7 74 92.3 74c.3 0 2.8-1.6 5.7-3.5 4.9-3.3 12-6 14.1-5.3.5.2-1.2 2-3.9 4-8.3 6.1-14.2 14.5-11.4 16.1.4.3 4.4-2.3 8.9-5.7 4.5-3.3 9.6-6.9 11.5-7.9 2.8-1.6 2.6-1.2-1.4 2.3-5.7 5-12.2 13.6-11.3 15 1 1.6 3.1 1.2 9.2-1.9 3.2-1.6 7.1-3.3 8.7-3.7 2.7-.6 2.5-.3-2.4 4.4-6 5.8-6.1 7.9-.5 7.4 5.7-.5 8.3.5 10 3.8 4 7.7-.5 15.4-10.2 17.5-1.8.3-3.3 1-3.3 1.4 0 .5 1.2 2.5 2.6 4.6 1.4 2.1 2.3 4.4 2 5.1-.7 1.8-8.3 3.7-12.8 3.1-2-.3-7.6-2.3-12.5-4.5-10.3-4.8-17.1-5.9-24.2-4.2-4.4 1-5.1 1.6-6.1 4.6-.6 1.9-1 5-.9 6.9.3 2.6-.3 4.1-2.3 6.2-1.5 1.6-3.4 4.8-4.3 7.3-.9 2.4-2.6 5.5-3.8 6.9l-2.2 2.4 4.8-.7c6.5-.8 12.6-3.6 17.3-7.9 3.6-3.2 4.1-3.4 5.9-2.1 3.6 2.7 4.5 1.4 1.1-1.6-3.5-3.1-6.3-9.1-5.1-11 1.1-1.8 2.1-1.1 3.3 2.4 1.5 4.2 5.1 8.8 6.2 8.1.5-.3.8-2.3.8-4.5 0-4.1 1.5-7 3.7-7 2.6 0 2.7 9.6.1 12.9-.6.8.9.4 3.3-1 2.4-1.3 5-3.4 5.8-4.6 1.4-2.2 1.6-2.2 4.1-.5 4.1 2.7 15.4 2.3 21.7-.8 2.8-1.3 5.5-2.6 6-2.8.6-.3-1 1.6-3.5 4.2-2.4 2.5-7.4 6.1-11 7.8-3.6 1.8-6.7 3.4-6.9 3.6-.3.1.3 1.7 1.3 3.4l1.9 3.1-7.4-.7-7.4-.6 2.5 2.1c1.4 1.2 4.7 3.2 7.3 4.6 2.7 1.3 4.7 2.6 4.5 2.8-.7.7-12.2-1.6-19.5-4-4.3-1.3-7.9-2.3-8.1-2.1-.8.8 8.4 7.6 15.1 11.1l7.2 3.8-8-.7c-4.4-.3-10.5-1.3-13.5-2.1s-5.6-1.3-5.8-1c-.8.8 7.5 5.5 12.9 7.4 3.1 1 10 2.9 15.3 4.1 6.3 1.5 9.3 2.6 8.4 3.1-2.1 1.4-17.5 1-27.7-.6-5.2-.9-9.6-1.4-9.8-1.2-.2.3 1.3 1.1 3.4 2 8.2 3.2 15.8 4.2 34 4.2 10.1 0 17.8.4 17.3.9-.4.4-8.2 2.3-17.2 4l-16.3 3.3 3.8 1.6c2.6 1.1 4.1 2.6 4.9 4.7.9 2.8 1.3 3 4.2 2.4 5.2-1.1 15.6-5.2 18.7-7.5 1.7-1.2 3.2-1.9 3.4-1.7.6.6-4.4 5.9-7.5 8l-2.5 1.7 3 .1c1.7 0 5.7 1.3 9 2.9l6 2.9-4.5.2c-2.5.1-5.8.5-7.5.9l-2.9.6 4.3 1.9c3.9 1.8 9.7 7.3 8.7 8.3-.2.2-2.5-.3-5-1.1-2.6-.9-7.2-1.6-10.4-1.5l-5.7.1 5 1.2c8.3 2.1 19.1 8.4 17.3 10.2-.3.2-3.8-1.1-7.9-3.1-9-4.3-11.6-4.5-6-.4 2.4 1.7 4.1 3.2 3.9 3.4-.2.2-3.1-.3-6.3-1.2-6.7-1.8-22.2-2.1-29.5-.5-4.2.9-4 1 4.2 1.1 10.6.1 30.5 4.1 35.3 7.1 6.4 3.9 6.5 4.4 6.5 26.2v19.7l-4.1 1.3-4.1 1.2 2.5 2.2 2.6 2.2-4.9 2.1c-2.7 1.2-7.2 2.6-10.1 3.3-5 1.2-5.1 1.2-3 2.9 1.8 1.4 1.8 1.8.5 2.3-.9.3-3.5.6-5.9.6-4.3 0-4.4.1-5.1 3.6-.6 3.5-.8 3.6-4.3 2.9-2-.3-4.4-.8-5.3-1.1-1.3-.4-1.8 0-1.8 1.5 0 2.5-.1 2.5-4.7.6-2-.8-3.8-1.4-4-1.2-.1.2.1 2.5.6 5 .4 2.6.5 4.7.1 4.7s-2.7-2.5-5.1-5.5c-2.6-3.2-4.5-5-4.7-4.2-.3 1.5 2 11.8 3.4 15.2.7 1.8.6 1.9-1 .6-2.8-2.3-5.4-8.4-6.6-15.2-1.5-9.3-1.6-9 3-8.3 2.2.4 5.9.2 8.3-.4 2.3-.6 5.8-1.4 7.8-1.7 2-.3 4.9-1.7 6.3-3 2-1.9 3.8-2.5 7.2-2.5 5.6 0 10.1-1.9 13.8-5.9 1.7-1.7 4.9-4.1 7.3-5.2 2.4-1.2 5.5-3.6 7-5.5 2.4-3.3 2.5-3.8 1.9-11.5-1-11.1-2.9-16.6-7.5-22-3.5-4-4.8-4.8-9.8-5.7-21.3-4.2-40.5-1.1-59 9.4-6.5 3.8-8.1 4.3-11.4 3.8-3.2-.5-4.3-1.4-6.3-4.9-1.4-2.3-4.6-6.8-7.2-9.9-3.9-4.8-4.4-5.9-3.2-6.9.8-.7 2.6-3.1 4-5.3 2.7-4.2 9.4-8.4 13.4-8.4 1.8 0 2.1-.7 2.2-6.3 0-3.4.5-7.4 1.1-9 1.3-3.4 1-3.4-3.1.2-2.5 2.2-4.7 3-9.5 3.5-9 1-19.9 4.3-27.3 8.2-6.1 3.2-6.6 3.3-7.8 1.7-2-2.6-1-11.1 1.7-15.3 1.3-1.9 4.1-6.7 6.3-10.5 5.4-9.2 15.1-22.1 28.5-37.6 5.9-6.9 11.4-13.3 12.1-14.2.9-1 1.4-5 1.5-11.4.2-12.5 3-18.7 11.7-26.6l5.9-5.3-.6-5.5c-.4-4.4-.2-6.2 1.3-8.5 3.5-5.6 10.3-13.1 15.6-17.2 5.1-3.9 16.2-10.2 18.2-10.2.5 0-2.6 3.3-7 7.4zm199.2 4.7c6.1 4.7 10.6 10.8 13.4 18.3 2.3 6 3.4 7 9.3 8.1 3.3.6 4.1 1.4 6.3 5.7 1.3 2.7 4 6.5 5.8 8.6 1.9 2 4 5.3 4.8 7.2.8 1.9 3.4 5.4 5.7 7.6 3.8 3.9 4.1 4.6 4.1 9.6 0 8.7 2.5 16.4 7.6 23.1 10.4 13.9 31.5 50.3 33.5 57.9 1.4 5.2.7 7-1.8 4.6-1.2-1.3-2-1.4-3.4-.5-1.4.9-2.2.8-3.6-.6-3-2.6-11-5.8-15.2-6-2.8-.1-5.2.8-8.9 3.2-5.6 3.6-6.5 5.1-2.9 5.1 4.6.1 10.1 4.3 13 9.9 4.2 8.4 3.8 10.1-4 17.9-8.4 8.2-11.2 10.2-14.1 10.2-3.1 0-9-3.1-19.2-10.2-6.8-4.7-9.9-6.1-15.5-7.3-12.3-2.6-28.8-1.3-38.5 3-6.1 2.7-11.4 13.8-14 29.3-1 6.4-1 7.6.4 9.7 2.5 3.8 9 8.1 21.1 14.1C299.6 300 313 304 321.1 304c4.7 0 6 .4 6.9 1.9 2.1 4 1.2 6.9-2.7 9.5-4.5 2.8-7.1 5.6-10.7 11.3-3.5 5.7-5.9 7-8.6 4.3-2.7-2.7-2.7-10.1 0-18.1 1.2-3.4 1.9-6.3 1.7-6.6-.3-.2-2.9.3-5.8 1.1-5.3 1.5-8.6 1.9-12.1 1.7-2.4-.1-2.4-4.3-.1-7.8 1.7-2.6 1.7-2.6-.7-2-9.3 2.3-16 2-16-.9 0-.8.7-2.8 1.5-4.4l1.5-2.9-4.1 1.4c-8.6 3.1-12.5 1-9.6-5 1.6-3.4 1.6-3.5-.3-3.5-1.9 0-2-.7-2-18.2 0-17.2.1-18.4 2.3-21.5 1.2-1.8 4.2-4.3 6.7-5.7 5.6-3 24-6.6 34.6-6.7 6.8-.1 7.4-.2 4.4-1-6.3-1.7-23-1.4-29.9.4-3.5 1-6.6 1.6-6.8 1.3-.2-.2 1.8-1.8 4.4-3.6 4.3-2.9 4.5-3.2 1.8-2.6-1.6.4-6 2.2-9.7 4-6.8 3.4-8.5 3.3-4.9-.3 2.8-2.8 7.7-5.2 14.6-7.2l6-1.8h-5.1c-2.8-.1-7.3.6-9.9 1.4-2.7.8-5.1 1.2-5.4 1-.8-.8 4.8-6.1 8.5-8.1l3.5-1.9-6.8-1-6.8-1 4.6-2.2c2.5-1.2 6.2-2.5 8.2-2.8l3.7-.7-4.5-4c-5.6-4.9-5.9-6.7-.5-3.3 4 2.5 17.5 7.5 20.4 7.5.9 0 1.6-.8 1.6-1.9 0-2.4 4.5-6.1 7.3-6.1 5.1 0-.8-1.8-12.3-3.9-13.2-2.3-20-4-20-5 0-.3 6.6-.4 14.6-.3 16.1.4 27.9-.9 36.1-4 3-1.1 5.3-2.2 5.1-2.4-.2-.2-4.4.3-9.3 1.1-9.7 1.6-29.5 2-29.5.7 0-.5 4.6-1.9 10.3-3.1 5.6-1.3 12.8-3.4 15.9-4.6 5.6-2.3 12.3-6.4 11.6-7.1-.2-.2-2.6.3-5.2 1.1-4.2 1.3-21.6 3.6-22.4 3-.1-.1 3.1-1.8 7.1-3.8 6.8-3.4 18.8-12.8 14.2-11.1-6.6 2.4-17.8 5.3-22.5 5.8l-5.5.6 6.6-3.4c3.6-1.9 7.1-4.1 7.8-5 1.1-1.4.7-1.5-4.1-1-2.9.3-6.1.7-7 .9-2.2.4-2.3-.8-.3-3.8 1.5-2.3 1.3-2.4-5.6-5.7-9.5-4.7-16.8-12.5-19.4-20.9l-.7-2.4 3 2.2c1.7 1.1 3.8 2.1 4.9 2.1 1.6 0 1.8-.8 1.5-8.6-.4-10 1.4-16.1 5.5-19.4l2.6-2-4.4-2c-2.4-1.1-6.1-2-8.1-2-2.2 0-3.8-.5-3.8-1.1 0-1.2 15.1-.7 20 .7 2.5.7 2.5.7-.5-2.5-1.6-1.8-4.2-4-5.7-4.9-8.2-4.8 2.1-3.3 15.6 2.4 1.8.7 1.8.4-.4-2.7-1.3-1.9-4.1-5.5-6.3-8.2-2.1-2.6-3.5-4.7-3-4.7 2.3 0 11.5 6.4 15 10.4 4.4 5 7.9 6.2 6.8 2.3-1.8-5.6-7.3-14.2-13.8-21.3-6.7-7.3-6.9-7.7-3.2-5.5 2.2 1.4 6.3 4.1 9.1 6.2zm-18.2 87.5c4.4 1.1 2.9 2.4-2.7 2.4-8 0-12.7-4.6-12.7-12.4v-3.4l6.4 6.3c3.4 3.5 7.5 6.7 9 7.1zm-149.8-8.5c-1.2 7.5-6 11.9-12.8 11.9-5.6 0-6.2-1.4-1.5-3.7 2.3-1.1 6.2-4.3 8.7-7.1 2.5-2.7 4.9-5 5.4-5.1.5-.1.6 1.7.2 4zm156.2 105.3c5.9 3 6.5 4.6 7.2 18.4.7 13.3 2.2 18.6 6.2 22.9 2.6 2.8 1.9 2.9-3 .4-8.9-4.6-14.9-14.1-13.7-21.8.6-4.2.4-4.7-3.9-9.3-2.5-2.7-4.6-5.7-4.6-6.6 0-4.7 6.3-6.8 11.8-4zm-166 1.2c3.5 2.4 2.7 5.3-2.8 10.5-4.6 4.3-5 5-5 9.3 0 9.3-7.2 17.8-17.8 21.1-2.1.6-2 .3 1.2-4 4.1-5.2 5.1-8.5 6.6-20.8 1.6-12.7 2.4-14.3 8.5-16.5 4.3-1.5 6.7-1.4 9.3.4zm-58.2 6.5c1.4 2.8 2.4 5.2 2.2 5.4-.6.7-8-2.4-9.9-4.1-1.9-1.7-1.8-1.8 1.4-4 1.7-1.3 3.3-2.3 3.4-2.4.2 0 1.4 2.3 2.9 5.1zm277.2-1c4.4 2.2 4.4 2.2 2.1 3.5-3.4 1.9-11.9 4.7-12.5 4.1-.3-.2.6-2.2 2.1-4.2 1.4-2.1 2.5-4.2 2.5-4.6 0-1.3.9-1.1 5.8 1.2zM87 293.3c2.7 4.5 1.9 5.7-4.2 5.7-3.5 0-3.8-.2-4.4-3.6-.7-4 0-14.6 1.1-16.5.5-.7 1.7 1.1 3 4.7 1.2 3.2 3.3 7.6 4.5 9.7zm242.9-2.2c.1 6.3-1.1 8.4-5.3 9.2-5.3.9-5.6 0-2-6.1 1.9-3.1 3.4-5.9 3.4-6.3 0-.4.5-2 1.1-3.6 1-2.6 1.2-2.7 1.9-.8.5 1.1.9 4.5.9 7.6zm-189.5 37.8c1.1.4 1.5 1 .9 1.4-.5.3-1.9 0-2.9-.8-2-1.5-1.1-1.8 2-.6zm123.2.6c-2.3 1.7-3.6 1.9-3.6.6 0-.5.8-1.2 1.8-1.4 3.2-.9 3.7-.6 1.8.8zm-130.9 5.3c2.1.6 5 1.3 6.6 1.6 1.8.4 2.7 1.3 2.7 2.6 0 2.8-1.6 2.5-9.5-2.1-3.8-2.2-6.2-3.8-5.3-3.5.9.3 3.4.9 5.5 1.4zm144.2-1.4c-.2.2-4.1 2.2-8.6 4.5-8.2 4.1-8.3 4.1-8.3 1.8 0-2.1.9-2.7 7.3-4.4 7.1-2 10.4-2.7 9.6-1.9zm-160.8 7c5.2 1.3 13.2 3 17.7 3.6l8.2 1.2v4.9c0 3.6-.4 4.9-1.4 4.9-1.4 0-35.7-16.9-34.6-17 .3 0 4.8 1.1 10.1 2.4zm163.5 6.2c-9.2 4.6-17.4 8.4-18.2 8.4-1 0-1.4-1.4-1.4-4.8v-4.9l10.3-1.6c5.6-1 13.1-2.6 16.7-3.6 3.6-1 7.2-1.9 8-1.9.8 0-6.1 3.7-15.4 8.4z"/><path d="M188 17.1c-11.7.9-29.6 4.1-33.7 6.1l-2.8 1.3v350l2.5 1.1c4.3 2.1 22 5.3 34.5 6.3 20.4 1.6 50.1-1.5 59.4-6.4l3.1-1.6V199.6c0-143.5-.2-174.5-1.3-175.5-.8-.6-5.1-1.9-9.8-3-16.3-3.8-35.3-5.3-51.9-4zm7 61.4V117l16.3.2 16.2.3.3 7.7.3 7.8H175V40h20v38.5zm32 72v7.5h-33v22h31v16h-31v24h34v16h-53v-93.5l26 .3 26 .3v7.4zm-9.3 97.1c4.6 2.4 6.4 4 9 8.3 4.9 8.2 5.8 14 5.8 37.1 0 18.7-.2 21.1-2.4 28-1.8 6-3.2 8.4-7 12.1-5.7 5.8-10.5 7.3-22.6 7.3-17 0-25.4-7-29.1-24.3-2.2-10.5-1.9-39.8.5-49.4 2.2-8.4 5.7-14.8 9.7-17.4 9.6-6.2 25.7-7 36.1-1.7zM207 353c2 2 2.6 6.3 1.4 9.5-.9 2.3-6 4.6-8.8 3.9-6-1.5-8.2-9.8-3.7-13.5 3.1-2.5 8.6-2.4 11.1.1z"/><path d="M196.2 259c-1.3.6-3.2 3-4.4 5.7-1.9 4.2-2.2 7.1-2.6 22.9-.7 30.1 2 38.7 12.2 38.7 9.4 0 11.5-4.9 12.3-28.8.5-17-.4-28.6-2.9-34-2.1-4.7-8.9-6.7-14.6-4.5zM197 354.5c-1.6 1.9-1.6 6 0 8 .7.8 2.8 1.5 4.6 1.5 4.2 0 6.3-3.4 4.8-7.8-.7-2.2-1.7-2.8-4.5-3-2.3-.2-4 .2-4.9 1.3zm7.5 4.2c.1 4.3-1 5.7-2.1 2.8-.6-1.6-2.6-2.1-2.1-.6.1.5-.2 1.1-.8 1.3-.5.1-1.1-1.6-1.3-4l-.3-4.3 3.2.3c3.1.3 3.3.5 3.4 4.5z"/><path d="M200.6 355.9c-.4.5-.2 1.2.3 1.5.5.4 1.2.2 1.5-.3.4-.5.2-1.2-.3-1.5-.5-.4-1.2-.2-1.5.3zM37.9 174.4C28.2 186.6 21 197 21 199c0 1.3 6.5 1.2 11.5-.3 3.8-1.2 4-1.5 5.1-7.2 1.4-6.7 5.6-19 8.6-24.8 1.1-2.2 1.8-4 1.6-4.1-.2-.2-4.6 5.1-9.9 11.8zM77 211.3c-13.7 4.9-33.4 16.8-36 21.8-1.5 2.8.8 3.5 3.8 1.1 8.6-6.8 18.3-12.8 29-18.2 6.7-3.3 12.2-6.2 12.2-6.5 0-1-2.6-.4-9 1.8zM81.5 216.4c-11.7 3.7-35.4 18.9-35.5 22.8 0 2.5 2.3 2.2 5-.7 3.5-3.7 15.3-11.6 26.3-17.4 11.7-6.3 12.6-7.3 4.2-4.7zM72.3 228C61.5 233.4 49 242.3 49 244.6c0 2.3 2.1 1.6 7-2.5 5.9-4.9 13.6-9.9 22.8-14.5 3.9-2 7.2-3.8 7.2-4.1 0-1.5-5 .1-13.7 4.5zM316.5 128.6c-11.5 3.9-13.8 4.4-20.2 4.2-5.7-.3-7.8-.8-10.4-2.7l-3.2-2.4 1.9 3.3c2.7 4.5 6.8 7.8 11.6 9.1 4.3 1.1 11.8.5 15.1-1.3 1.4-.7 2.3-.5 3.5.6 1.6 1.3 1.7 1.1 1.7-3.2 0-4.4.2-4.7 2.8-5l2.7-.3-.6 5.5c-.4 3.7-.3 5.6.4 5.6 1.3 0 6.1-5.7 7.3-8.7.9-2.5 2.7-3 3.5-1 1.4 3.7-5.5 12.7-9.8 12.7-2.9 0-10 4-9.5 5.3.8 2.2 9.7 1 15.9-2.1l5.8-3 2.4 2.9c1.4 1.6 2.7 3.8 3.1 4.9.4 1.2 2.1 2.3 4.4 3 2 .5 5.8 2.4 8.4 4.1 6.8 4.5 8.6 3.6 4.3-2.4-4.5-6.4-7.5-13.4-9.1-22-1.8-9.6-4.2-11.7-12.8-11.7-4.7.1-9.3 1.1-19.2 4.6zM364.5 169.9c-.6.5-2.6 1.1-4.5 1.3l-3.4.3 3.4 3.2c7.5 7 13.2 4.3 7.2-3.5-1.1-1.4-2.1-1.9-2.7-1.3zM366.9 185.7c3 4 8.6 7.2 10.2 5.6 1.9-1.9-.7-5.3-4.2-5.3-1.6 0-4.2-.8-5.6-1.8l-2.7-1.7 2.3 3.2zM375 198c1.4 1.1 3.4 1.9 4.5 1.9 1.5 0 1.1-.5-1.5-1.9-4.5-2.5-6.2-2.5-3 0zM314 202.5c0 .3 3.1 2 6.9 3.9 6.1 3.1 14.5 9.3 25.1 18.4 5.3 4.6 3.2 4.6-3.5 0-8.9-6.1-21.6-11.8-30.1-13.5-9.7-2-12.2-.4-3.4 2.1 3.4 1 9.1 3.1 12.8 4.7 8.6 3.9 25.8 14.2 24.4 14.7-.5.1-7.5-1.7-15.4-4.2-7.8-2.6-17.4-5.3-21.3-6.1-8.2-1.7-14.9-2-14-.5.3.5 1.7 1 2.9 1 4.7 0 21.5 4.9 38.6 11.3 17 6.3 17.6 6.4 20.3 4.9 5.1-3 4.5-4.6-4.9-13.4-10.3-9.9-19.3-16.6-27.6-20.8-5.4-2.6-10.8-3.9-10.8-2.5z"/></svg>